<?xml version="1.0" encoding="UTF-8" standalone="no"?>
<!-- Created with Inkscape (http://www.inkscape.org/) -->

<svg
   width="32"
   height="32"
   viewBox="0 0 8.4666666 8.4666667"
   version="1.1"
   id="svg5"
   sodipodi:docname="logo.svg"
   xml:space="preserve"
   inkscape:version="1.2.1 (9c6d41e410, 2022-07-14)"
   xmlns:inkscape="http://www.inkscape.org/namespaces/inkscape"
   xmlns:sodipodi="http://sodipodi.sourceforge.net/DTD/sodipodi-0.dtd"
   xmlns="http://www.w3.org/2000/svg"
   xmlns:svg="http://www.w3.org/2000/svg"><sodipodi:namedview
     id="namedview7"
     pagecolor="#ffffff"
     bordercolor="#000000"
     borderopacity="0.25"
     inkscape:showpageshadow="2"
     inkscape:pageopacity="0.0"
     inkscape:pagecheckerboard="0"
     inkscape:deskcolor="#d1d1d1"
     inkscape:document-units="mm"
     showgrid="false"
     inkscape:zoom="16"
     inkscape:cx="-0.75"
     inkscape:cy="11.28125"
     inkscape:window-width="1920"
     inkscape:window-height="991"
     inkscape:window-x="-9"
     inkscape:window-y="-9"
     inkscape:window-maximized="1"
     inkscape:current-layer="layer1" /><defs
     id="defs2" /><g
     inkscape:label="Calque 1"
     inkscape:groupmode="layer"
     id="layer1"><g
       id="g26282"
       transform="translate(0.13610963,0.13346705)"><g
         id="g26002"><path
           id="path25935"
           style="stroke-width:0.264583"
           inkscape:transform-center-y="-0.20384506"
           d="M 4.806865,1.3746286 H 4.100725 V 0.15155827 Z"
           sodipodi:nodetypes="cccc" /><rect
           style="fill:#ffffff;fill-opacity:1;stroke:none;stroke-width:0.247486;stroke-dasharray:none;stroke-opacity:1"
           id="rect25938"
           width="0.13229162"
           height="1.0701082"
           x="3.9684334"
           y="0.42854396"
           ry="0" /></g><g
         id="g25998"><path
           id="path25992"
           style="stroke-width:0.264583"
           inkscape:transform-center-y="0.20384505"
           d="m 3.394585,6.825104 h 0.70614 v 1.2230703 z"
           sodipodi:nodetypes="cccc" /><rect
           style="fill:#ffffff;fill-opacity:1;stroke:none;stroke-width:0.247486;stroke-dasharray:none;stroke-opacity:1"
           id="rect25994"
           width="0.13229162"
           height="1.0701082"
           x="4.1007252"
           y="6.7061706"
           ry="0" /></g><g
         id="g26008"
         transform="rotate(90,4.0994655,4.0994655)"><path
           id="path26004"
           style="stroke-width:0.264583"
           inkscape:transform-center-y="-0.20384506"
           d="M 4.806865,1.3746286 H 4.100725 V 0.15155827 Z"
           sodipodi:nodetypes="cccc" /><rect
           style="fill:#ffffff;fill-opacity:1;stroke:none;stroke-width:0.247486;stroke-dasharray:none;stroke-opacity:1"
           id="rect26006"
           width="0.13229162"
           height="1.0701082"
           x="3.9684334"
           y="0.42854396"
           ry="0" /></g><g
         id="g26014"
         transform="rotate(-90,4.0984832,4.1029668)"><path
           id="path26010"
           style="stroke-width:0.264583"
           inkscape:transform-center-y="-0.20384506"
           d="M 4.806865,1.3746286 H 4.100725 V 0.15155827 Z"
           sodipodi:nodetypes="cccc" /><rect
           style="fill:#ffffff;fill-opacity:1;stroke:none;stroke-width:0.247486;stroke-dasharray:none;stroke-opacity:1"
           id="rect26012"
           width="0.13229162"
           height="1.0701082"
           x="3.9684334"
           y="0.42854396"
           ry="0" /></g><g
         id="g26253"><g
           id="g25927"><g
             id="g25905"
             transform="translate(-5.5037528,-3.9337893)"><g
               id="g25917"><circle
                 style="fill:#000000;fill-opacity:0;stroke:#000000;stroke-width:0.264583;stroke-dasharray:none;stroke-opacity:1"
                 id="path788"
                 cx="9.6044779"
                 cy="8.0345144"
                 r="3.4392669" /></g><circle
               style="fill:#000000;fill-opacity:0;stroke:#000000;stroke-width:0.264583;stroke-dasharray:none;stroke-opacity:1"
               id="circle4583"
               cx="9.6044779"
               cy="8.0345144"
               r="2.855124" /></g><rect
             style="fill:#000000;fill-opacity:1;stroke:none;stroke-width:0.140381;stroke-dasharray:none;stroke-opacity:1"
             id="rect25134"
             width="0.26458332"
             height="0.52916664"
             x="3.9684334"
             y="1.5875"
             ry="0.13229166" /><rect
             style="fill:#000000;fill-opacity:1;stroke:none;stroke-width:0.140381;stroke-dasharray:none;stroke-opacity:1"
             id="rect25897"
             width="0.26458332"
             height="0.52916664"
             x="3.9684334"
             y="6.0854168"
             ry="0.13229166" /><rect
             style="fill:#000000;fill-opacity:1;stroke:none;stroke-width:0.140381;stroke-dasharray:none;stroke-opacity:1"
             id="rect25899"
             width="0.26458332"
             height="0.52916664"
             x="3.9684334"
             y="-2.1166666"
             ry="0.13229166"
             transform="rotate(90)" /><rect
             style="fill:#000000;fill-opacity:1;stroke:none;stroke-width:0.140381;stroke-dasharray:none;stroke-opacity:1"
             id="rect25901"
             width="0.26458332"
             height="0.52916664"
             x="3.9684334"
             y="-6.6145835"
             ry="0.13229166"
             transform="rotate(90)" /></g><g
           id="g26207"
           transform="translate(-0.1790723,-0.14960193)"><path
             id="rect26190"
             style="stroke-width:0.204945"
             d="m 3.6689944,4.1965108 0.204025,0.2237921 c 0,0 -0.3216471,0.3311882 -0.4824349,0.5242483 C 3.2310423,5.1361152 2.9704247,5.5036575 2.9704247,5.5036575 L 2.7088438,5.3489479 c 0,0 0.2894377,-0.4066948 0.4490075,-0.5982976 0.1608152,-0.1930987 0.511143,-0.5541394 0.5111431,-0.5541395 z"
             sodipodi:nodetypes="ccsccsc" /><path
             id="path26194"
             style="stroke-width:0.204945"
             d="m 4.5200599,3.5847543 0.223664,0.244463 c 0,0 -0.2071275,0.1249972 -0.3643015,0.3293854 C 4.5932548,4.4790475 4.8766873,4.8426802 4.7704347,5.1279044 4.6063538,5.5683628 3.4845932,5.7066503 3.4845932,5.7066503 L 3.4085884,5.3879736 c 0,0 0.6066277,-0.160893 0.970834,-0.422431 C 4.2529964,4.7153011 3.8806042,4.4006066 3.9469603,4.0783842 3.9978144,3.8314388 4.5200599,3.5847543 4.5200599,3.5847543 Z"
             sodipodi:nodetypes="cccscccsc" /><path
             id="path26196"
             style="stroke-width:0.204945"
             d="m 3.8730194,3.1138884 c 0,0 0.3303473,-0.1682188 0.8101468,-0.1682188 0.1998874,0.1477991 0.5318973,0.7458168 0.6750689,0.8803072 0.2035893,-0.093865 0.3670278,-0.2050587 0.3670278,-0.2050587 l 0.1261213,0.2218151 c 0,0 -0.3227347,0.371815 -0.6232642,0.3530936 C 5.0074216,4.0781918 4.7224403,3.3743193 4.5471656,3.2538227 c -0.194906,0 -0.5378018,0.1407623 -0.5378018,0.1407623 z"
             sodipodi:nodetypes="ccccccccc" /><circle
             style="fill:#000000;fill-opacity:1;stroke:none;stroke-width:0.264583;stroke-dasharray:none;stroke-opacity:1"
             id="path26198"
             cx="5.5093627"
             cy="3.1366584"
             r="0.34202147" /></g></g></g></g></svg>
