<?xml version="1.0" encoding="UTF-8" standalone="no"?>
<!-- Created with Inkscape (http://www.inkscape.org/) -->

<svg
   width="210mm"
   height="297mm"
   viewBox="0 0 210 297"
   version="1.1"
   id="svg5"
   inkscape:version="1.2.2 (732a01da63, 2022-12-09)"
   sodipodi:docname="logo.svg"
   xmlns:inkscape="http://www.inkscape.org/namespaces/inkscape"
   xmlns:sodipodi="http://sodipodi.sourceforge.net/DTD/sodipodi-0.dtd"
   xmlns="http://www.w3.org/2000/svg"
   xmlns:svg="http://www.w3.org/2000/svg">
  <sodipodi:namedview
     id="namedview7"
     pagecolor="#ffffff"
     bordercolor="#000000"
     borderopacity="0.25"
     inkscape:showpageshadow="2"
     inkscape:pageopacity="0.0"
     inkscape:pagecheckerboard="0"
     inkscape:deskcolor="#d1d1d1"
     inkscape:document-units="mm"
     showgrid="false"
     inkscape:zoom="0.35355339"
     inkscape:cx="347.89653"
     inkscape:cy="653.36666"
     inkscape:window-width="1920"
     inkscape:window-height="1027"
     inkscape:window-x="-8"
     inkscape:window-y="-8"
     inkscape:window-maximized="1"
     inkscape:current-layer="layer1" />
  <defs
     id="defs2" />
  <g
     inkscape:label="Calque 1"
     inkscape:groupmode="layer"
     id="layer1">
    <path
       id="circle221"
       style="fill:#ffffff;stroke-width:0.264583;fill-opacity:0"
       d="m -80.330078,77.09375 c -11.930791,0.343745 -23.601112,5.836204 -31.470052,14.812036 -7.54094,8.500304 -11.579,20.005364 -10.93967,31.357214 0.55666,11.05714 5.47209,21.83226 13.51238,29.4534 7.84419,7.52145 18.555742,11.96552 29.427808,12.15396 11.06642,0.24482 22.163327,-3.87482 30.351458,-11.33126 8.563349,-7.70567 13.880071,-18.89187 14.402856,-30.40405 0.595145,-11.49337 -3.555586,-23.149894 -11.325173,-31.648023 -8.050047,-8.939058 -19.912964,-14.319757 -31.950332,-14.404084 -0.669573,-0.02008 -1.339575,0.0089 -2.009275,0.01081 z" />
    <g
       id="g44098"
       transform="translate(282.51246,-12.20844)">
      <g
         id="g44075">
        <g
           id="g44022">
          <circle
             style="fill:#ffffff;fill-opacity:1;stroke-width:0.264583"
             id="path1739"
             cx="-183.74025"
             cy="152.18182"
             r="42.333332" />
          <g
             id="g44013">
            <path
               id="circle1741"
               style="fill:#ffffff;fill-opacity:0;stroke:#ffffff;stroke-width:3.96875;stroke-dasharray:none;stroke-opacity:1"
               d="m -185.09403,95.074852 c -18.77788,0.477495 -37.00063,10.834128 -47.00586,26.732418 -4.03011,6.42023 -6.77681,13.82742 -7.93693,21.34317 -1.75229,11.2149 -0.26367,23.06696 4.65958,33.40683 3.7739,8.01632 9.59346,15.16269 16.51172,20.55078 7.92052,6.17266 17.44309,10.35216 27.45396,11.67027 11.18243,1.4825 22.61862,-0.40781 32.78781,-5.31948 8.2371,-3.97253 15.50139,-10.04582 20.88538,-17.47703 4.04622,-5.51285 7.14974,-11.91168 8.99784,-18.45731 1.77649,-6.26614 2.4622,-12.83556 1.9697,-19.26882 -0.94542,-13.3185 -6.74054,-26.40251 -16.13325,-35.99345 -6.41758,-6.63372 -14.55259,-11.5256 -23.29618,-14.384114 -5.43586,-1.769208 -11.22249,-2.754723 -16.91757,-2.811619 -0.65881,-0.01487 -1.3174,0.0016 -1.9762,0.0084 z" />
            <path
               sodipodi:type="star"
               style="fill:#ffffff;fill-opacity:1;stroke:none;stroke-width:3.96875;stroke-dasharray:none;stroke-opacity:1"
               id="path23370"
               inkscape:flatsided="true"
               sodipodi:sides="3"
               sodipodi:cx="-219.15584"
               sodipodi:cy="79.948051"
               sodipodi:r1="11.695615"
               sodipodi:r2="5.8478074"
               sodipodi:arg1="0.52359878"
               sodipodi:arg2="1.5707963"
               inkscape:rounded="0"
               inkscape:randomized="0"
               d="m -209.02714,85.795859 -20.2574,0 10.1287,-17.543422 z"
               inkscape:transform-center-x="8.8194381"
               inkscape:transform-center-y="-3.6051279e-06"
               transform="matrix(0,-0.65305356,3.0163252,0,-467.26871,9.1160548)" />
            <path
               sodipodi:type="star"
               style="fill:#ffffff;fill-opacity:1;stroke:none;stroke-width:3.96875;stroke-dasharray:none;stroke-opacity:1"
               id="path21760"
               inkscape:flatsided="true"
               sodipodi:sides="3"
               sodipodi:cx="-219.15584"
               sodipodi:cy="79.948051"
               sodipodi:r1="11.695615"
               sodipodi:r2="5.8478074"
               sodipodi:arg1="0.52359878"
               sodipodi:arg2="1.5707963"
               inkscape:rounded="0"
               inkscape:randomized="0"
               d="m -209.02714,85.795859 -20.2574,0 10.1287,-17.543422 z"
               inkscape:transform-center-x="-3.7859093e-06"
               inkscape:transform-center-y="-8.8194429"
               transform="matrix(0.65305356,0,0,3.0163252,-40.614415,-131.3293)" />
            <path
               sodipodi:type="star"
               style="fill:#ffffff;fill-opacity:1;stroke:none;stroke-width:3.96875;stroke-dasharray:none;stroke-opacity:1"
               id="path23372"
               inkscape:flatsided="true"
               sodipodi:sides="3"
               sodipodi:cx="-219.15584"
               sodipodi:cy="79.948051"
               sodipodi:r1="11.695615"
               sodipodi:r2="5.8478074"
               sodipodi:arg1="0.52359878"
               sodipodi:arg2="1.5707963"
               inkscape:rounded="0"
               inkscape:randomized="0"
               d="m -209.02714,85.795859 -20.2574,0 10.1287,-17.543422 z"
               inkscape:transform-center-x="5.8051279e-06"
               inkscape:transform-center-y="8.8194334"
               transform="matrix(-0.65305356,0,0,-3.0163252,-326.74595,435.95005)" />
            <path
               sodipodi:type="star"
               style="fill:#ffffff;fill-opacity:1;stroke:none;stroke-width:3.96875;stroke-dasharray:none;stroke-opacity:1"
               id="path23374"
               inkscape:flatsided="true"
               sodipodi:sides="3"
               sodipodi:cx="-219.15584"
               sodipodi:cy="79.948051"
               sodipodi:r1="11.695615"
               sodipodi:r2="5.8478074"
               sodipodi:arg1="0.52359878"
               sodipodi:arg2="1.5707963"
               inkscape:rounded="0"
               inkscape:randomized="0"
               d="m -209.02714,85.795859 -20.2574,0 10.1287,-17.543422 z"
               inkscape:transform-center-x="-8.819433"
               inkscape:transform-center-y="1.105128e-06"
               transform="matrix(0,0.65305356,-3.0163252,0,100.67815,295.24759)" />
          </g>
        </g>
        <circle
           style="fill:#000000;fill-opacity:1;stroke:none;stroke-width:3.96875;stroke-dasharray:none;stroke-opacity:1"
           id="path5466"
           cx="-183.68018"
           cy="152.14742"
           r="31.75" />
      </g>
      <g
         id="g20178">
        <g
           id="g20166">
          <path
             id="path16430"
             style="fill:#000000;fill-opacity:1;stroke:none;stroke-width:1.2892;stroke-dasharray:none;stroke-opacity:1"
             inkscape:transform-center-x="2.5118402e-06"
             inkscape:transform-center-y="-5.2916676"
             d="m -183.94806,110.91151 c -1.39414,11.15213 -2.78785,22.30539 -4.18226,33.45678 2.93027,0 5.86054,0 8.79081,0 -1.46545,-11.72003 -2.93033,-23.44153 -4.39541,-35.16254 -0.071,0.56859 -0.14209,1.13718 -0.21314,1.70576 z" />
          <path
             id="path17901"
             style="fill:#000000;fill-opacity:1;stroke:none;stroke-width:1.2892;stroke-dasharray:none;stroke-opacity:1"
             inkscape:transform-center-x="2.5118402e-06"
             inkscape:transform-center-y="-5.2916676"
             d="m -224.95049,152.4497 c 11.15213,1.39414 22.30539,2.78785 33.45678,4.18226 0,-2.93027 0,-5.86054 0,-8.79081 -11.72003,1.46545 -23.44153,2.93033 -35.16254,4.39541 0.56859,0.071 1.13718,0.14209 1.70576,0.21314 z" />
          <path
             id="path17907"
             style="fill:#000000;fill-opacity:1;stroke:none;stroke-width:1.23075;stroke-dasharray:none;stroke-opacity:1"
             inkscape:transform-center-x="2.5118402e-06"
             inkscape:transform-center-y="-5.2916676"
             d="m -206.43795,129.86515 c 4.76709,7.14595 9.53515,14.29214 14.30162,21.43792 2.5,-2.5 5,-5 7.49999,-7.5 -7.51011,-5.00957 -15.02052,-10.02042 -22.53084,-15.03084 0.24312,0.36427 0.48616,0.72862 0.72923,1.09292 z" />
          <path
             id="path18664"
             style="fill:#000000;fill-opacity:1;stroke:none;stroke-width:1.23075;stroke-dasharray:none;stroke-opacity:1"
             inkscape:transform-center-x="2.5118402e-06"
             inkscape:transform-center-y="-5.2916676"
             d="m -161.8851,129.85211 c -7.14595,4.76709 -14.29213,9.53515 -21.43792,14.30162 2.5,2.5 5,5 7.5,7.49999 5.00957,-7.51011 10.02042,-15.02052 15.03084,-22.53084 -0.36427,0.24312 -0.72861,0.48616 -1.09292,0.72923 z" />
          <path
             id="path17895"
             style="fill:#000000;fill-opacity:1;stroke:none;stroke-width:1.2892;stroke-dasharray:none;stroke-opacity:1"
             inkscape:transform-center-x="2.5118402e-06"
             inkscape:transform-center-y="-5.2916676"
             d="m -183.4123,193.45213 c 1.39414,-11.15213 2.78785,-22.30539 4.18226,-33.45678 -2.93027,0 -5.86054,0 -8.79081,0 1.46545,11.72003 2.93033,23.44153 4.39541,35.16254 0.071,-0.56859 0.14209,-1.13718 0.21314,-1.70576 z" />
          <path
             id="path17889"
             style="fill:#000000;fill-opacity:1;stroke:none;stroke-width:1.2892;stroke-dasharray:none;stroke-opacity:1"
             inkscape:transform-center-x="2.5118402e-06"
             inkscape:transform-center-y="-5.2916676"
             d="m -142.40987,151.91394 c -11.15213,-1.39414 -22.30539,-2.78785 -33.45678,-4.18226 0,2.93027 0,5.86054 0,8.79081 11.72003,-1.46545 23.44153,-2.93033 35.16254,-4.39541 -0.56859,-0.071 -1.13718,-0.14209 -1.70576,-0.21314 z" />
          <path
             id="path18670"
             style="fill:#000000;fill-opacity:1;stroke:none;stroke-width:1.23075;stroke-dasharray:none;stroke-opacity:1"
             inkscape:transform-center-x="2.5118402e-06"
             inkscape:transform-center-y="-5.2916676"
             d="m -161.34609,174.58028 c -4.76709,-7.14595 -9.53515,-14.29213 -14.30162,-21.43792 -2.5,2.5 -5,5 -7.49999,7.5 7.51011,5.00958 15.02052,10.02042 22.53084,15.03084 -0.24312,-0.36427 -0.48616,-0.72861 -0.72923,-1.09292 z" />
          <path
             id="path18676"
             style="fill:#000000;fill-opacity:1;stroke:none;stroke-width:1.23075;stroke-dasharray:none;stroke-opacity:1"
             inkscape:transform-center-x="2.5118402e-06"
             inkscape:transform-center-y="-5.2916676"
             d="m -205.72361,174.418 c 7.14595,-4.76709 14.29213,-9.53515 21.43792,-14.30162 -2.5,-2.5 -5,-4.99999 -7.5,-7.49999 -5.00958,7.51011 -10.02042,15.02052 -15.03084,22.53084 0.36427,-0.24312 0.72861,-0.48616 1.09292,-0.72923 z" />
        </g>
        <path
           id="path10618"
           style="fill:#ffffff;fill-opacity:1;stroke:none;stroke-width:3.96875;stroke-dasharray:none;stroke-opacity:1"
           inkscape:transform-center-x="2.5118402e-06"
           inkscape:transform-center-y="-5.2916676"
           d="m -210.74078,1.2392431 -24.77352,42.9082429 -118.68789,-17.142719 79.24037,25.715189 -198.35221,5.368064 197.72996,5.351039 -76.9155,24.961647 116.70492,-16.856255 25.05387,43.392349 L -186.2442,72.509696 -70.082894,89.288227 -149.43608,63.535287 51.832464,58.08802 -147.795,52.685165 -70.623083,27.640614 -185.88522,44.288868 Z"
           transform="matrix(0.1511483,0,0,0.69812408,-151.82715,111.62928)" />
      </g>
    </g>
  </g>
</svg>
